<svg width="27" height="26" viewBox="0 0 27 26" fill="none" xmlns="http://www.w3.org/2000/svg">
<path d="M10.407 2.60026C8.33691 2.60026 6.35162 3.42259 4.88785 4.88636C3.42408 6.35013 2.60175 8.33542 2.60175 10.4055C2.60175 12.4756 3.42408 14.4609 4.88785 15.9246C6.35162 17.3884 8.33691 18.2107 10.407 18.2107C12.4771 18.2107 14.4624 17.3884 15.9261 15.9246C17.3899 14.4609 18.2122 12.4756 18.2122 10.4055C18.2122 8.33542 17.3899 6.35013 15.9261 4.88636C14.4624 3.42259 12.4771 2.60026 10.407 2.60026ZM6.42843e-08 10.4055C0.000237183 8.74931 0.395749 7.11709 1.15367 5.64449C1.91158 4.17189 3.01001 2.90145 4.35767 1.93874C5.70533 0.976041 7.26329 0.348881 8.90208 0.109386C10.5409 -0.130109 12.2131 0.0249779 13.7799 0.561758C15.3467 1.09854 16.7628 2.00151 17.9104 3.19563C19.0581 4.38974 19.9041 5.84052 20.3783 7.42738C20.8525 9.01424 20.9411 10.6914 20.6368 12.3194C20.3324 13.9473 19.6439 15.4792 18.6285 16.7876L25.6363 23.7954C25.8733 24.0407 26.0044 24.3693 26.0014 24.7104C25.9985 25.0515 25.8617 25.3778 25.6205 25.619C25.3793 25.8602 25.053 25.997 24.7119 26C24.3708 26.0029 24.0422 25.8718 23.7969 25.6348L16.7891 18.627C15.2507 19.8213 13.4081 20.5601 11.4708 20.7591C9.53346 20.9582 7.57914 20.6097 5.83006 19.7532C4.08098 18.8966 2.60733 17.5665 1.57669 15.914C0.546054 14.2616 -0.000216362 12.353 6.42843e-08 10.4055Z" fill="#0D0D0D"/>
</svg>
